<?xml version="1.0" standalone="no"?><!DOCTYPE svg PUBLIC "-//W3C//DTD SVG 1.1//EN" "http://www.w3.org/Graphics/SVG/1.1/DTD/svg11.dtd"><svg t="1540175073843" class="icon" style="" viewBox="0 0 1024 1024" version="1.1" xmlns="http://www.w3.org/2000/svg" p-id="6986" xmlns:xlink="http://www.w3.org/1999/xlink" width="64" height="64"><defs><style type="text/css"></style></defs><path d="M958.171429 0H65.828571C29.257143 0 0 29.257143 0 65.828571v621.714286c0 36.571429 29.257143 65.828571 65.828571 65.828572h892.342858c36.571429 0 65.828571-29.257143 65.828571-65.828572V65.828571c0-36.571429-29.257143-65.828571-65.828571-65.828571z m7.314285 672.914286c0 14.628571-7.314286 21.942857-21.942857 21.942857H80.457143c-14.628571 0-21.942857-7.314286-21.942857-21.942857V80.457143c0-14.628571 7.314286-21.942857 21.942857-21.942857h863.085714c14.628571 0 21.942857 7.314286 21.942857 21.942857v592.457143z m-51.2 351.085714h-804.571428c-14.628571 0-29.257143-14.628571-29.257143-29.257143s14.628571-29.257143 29.257143-29.257143h804.571428c14.628571 0 29.257143 14.628571 29.257143 29.257143s-7.314286 29.257143-29.257143 29.257143z m-160.914285-124.342857H285.257143c-14.628571 0-29.257143-14.628571-29.257143-29.257143s14.628571-29.257143 29.257143-29.257143h468.114286c14.628571 0 29.257143 14.628571 29.257142 29.257143s-14.628571 29.257143-29.257142 29.257143z" p-id="6987" fill="#409eff"></path><path d="M212.114286 607.085714c-14.628571 0-29.257143-14.628571-29.257143-29.257143V380.342857c0-14.628571 14.628571-29.257143 29.257143-29.257143s29.257143 14.628571 29.257143 29.257143v197.485714c0 14.628571-14.628571 29.257143-29.257143 29.257143z m153.6 0c-14.628571 0-29.257143-14.628571-29.257143-29.257143V248.685714c0-14.628571 14.628571-29.257143 29.257143-29.257143s29.257143 14.628571 29.257143 29.257143v329.142857c0 14.628571-14.628571 29.257143-29.257143 29.257143z m409.6 0c-14.628571 0-29.257143-14.628571-29.257143-29.257143V307.2c0-14.628571 14.628571-29.257143 29.257143-29.257143s29.257143 14.628571 29.257143 29.257143v270.628571c0 14.628571-14.628571 29.257143-29.257143 29.257143z m-212.114286 0c-14.628571 0-29.257143-14.628571-29.257143-29.257143V153.6c0-14.628571 14.628571-29.257143 29.257143-29.257143s29.257143 14.628571 29.257143 29.257143v424.228571c-7.314286 14.628571-14.628571 29.257143-29.257143 29.257143z" p-id="6988" fill="#409eff"></path></svg>