<?xml version="1.0" standalone="no"?><!DOCTYPE svg PUBLIC "-//W3C//DTD SVG 1.1//EN" "http://www.w3.org/Graphics/SVG/1.1/DTD/svg11.dtd"><svg t="1540174777389" class="icon" style="" viewBox="0 0 1024 1024" version="1.1" xmlns="http://www.w3.org/2000/svg" p-id="3502" xmlns:xlink="http://www.w3.org/1999/xlink" width="64" height="64"><defs><style type="text/css"></style></defs><path d="M416 896a255.73 255.73 0 0 1-256-256c0-56.35 14.79-118.37 44-184.35 24.37-55.18 58.7-112.93 102-171.65a1340.27 1340.27 0 0 1 110-130.16 1339.24 1339.24 0 0 1 108.57 128.25 1025.53 1025.53 0 0 1 72.07 110.85 320.3 320.3 0 0 1 67.92-8.85C570.25 202.83 416 64 416 64S96 352 96 640c0 176.73 143.27 320 320 320a321.87 321.87 0 0 0 57.34-5.13A321.88 321.88 0 0 1 416 896z" p-id="3503" fill="#409eff"></path><path d="M672 718.67a44 44 0 0 0-14.67 85.49v46.51h29.33v-46.51A44 44 0 0 0 672 718.67zM672 448c-141.38 0-256 114.62-256 256s114.62 256 256 256 256-114.62 256-256-114.62-256-256-256z m-88 168a88 88 0 0 1 176 0v44h-29.33v-44a58.67 58.67 0 0 0-117.33 0v44H584z m220 234.67A29.42 29.42 0 0 1 774.67 880H569.33A29.42 29.42 0 0 1 540 850.67V704a29.42 29.42 0 0 1 29.33-29.33h205.34A29.42 29.42 0 0 1 804 704z" p-id="3504" fill="#409eff"></path></svg>