<?xml version="1.0" standalone="no"?><!DOCTYPE svg PUBLIC "-//W3C//DTD SVG 1.1//EN" "http://www.w3.org/Graphics/SVG/1.1/DTD/svg11.dtd"><svg t="1540175271344" class="icon" style="" viewBox="0 0 1024 1024" version="1.1" xmlns="http://www.w3.org/2000/svg" p-id="8459" xmlns:xlink="http://www.w3.org/1999/xlink" width="64" height="64"><defs><style type="text/css"></style></defs><path d="M98.225115 240.857627c-53.963029 0-97.878215-43.915186-97.878215-97.878215s43.914162-97.863888 97.878215-97.863888 97.878215 43.900859 97.878215 97.863888S152.188144 240.857627 98.225115 240.857627zM98.225115 101.9653c-22.623253 0-41.027415 18.404162-41.027415 41.014112 0 22.623253 18.404162 41.027415 41.027415 41.027415s41.027415-18.404162 41.027415-41.027415C139.252531 120.369462 120.848369 101.9653 98.225115 101.9653z" p-id="8460" fill="#409eff"></path><path d="M995.2277 171.404812 318.131571 171.404812c-15.711843 0-28.4254-12.727882-28.4254-28.4254s12.713556-28.4254 28.4254-28.4254l677.096129 0c15.711843 0 28.4254 12.727882 28.4254 28.4254S1010.939543 171.404812 995.2277 171.404812z" p-id="8461" fill="#409eff"></path><path d="M98.225115 609.871051c-53.963029 0-97.878215-43.914162-97.878215-97.878215s43.914162-97.863888 97.878215-97.863888 97.878215 43.900859 97.878215 97.863888S152.188144 609.871051 98.225115 609.871051zM98.225115 470.978724c-22.623253 0-41.027415 18.404162-41.027415 41.014112 0 22.623253 18.404162 41.027415 41.027415 41.027415s41.027415-18.404162 41.027415-41.027415C139.252531 489.382886 120.848369 470.978724 98.225115 470.978724z" p-id="8462" fill="#409eff"></path><path d="M995.2277 540.418236 318.131571 540.418236c-15.711843 0-28.4254-12.727882-28.4254-28.4254s12.713556-28.4254 28.4254-28.4254l677.096129 0c15.711843 0 28.4254 12.727882 28.4254 28.4254S1010.939543 540.418236 995.2277 540.418236z" p-id="8463" fill="#409eff"></path><path d="M98.225115 978.884476c-53.963029 0-97.878215-43.914162-97.878215-97.878215s43.914162-97.863888 97.878215-97.863888 97.878215 43.900859 97.878215 97.863888S152.188144 978.884476 98.225115 978.884476zM98.225115 839.993173c-22.623253 0-41.027415 18.404162-41.027415 41.014112 0 22.623253 18.404162 41.027415 41.027415 41.027415s41.027415-18.404162 41.027415-41.027415C139.252531 858.397335 120.848369 839.993173 98.225115 839.993173z" p-id="8464" fill="#409eff"></path><path d="M995.2277 909.431661 318.131571 909.431661c-15.711843 0-28.4254-12.727882-28.4254-28.4254 0-15.697517 12.713556-28.4254 28.4254-28.4254l677.096129 0c15.711843 0 28.4254 12.727882 28.4254 28.4254C1023.653099 896.703779 1010.939543 909.431661 995.2277 909.431661z" p-id="8465" fill="#409eff"></path></svg>